<svg xmlns="http://www.w3.org/2000/svg" viewBox="0 0 347.77 102.98"><defs><style>.cls-1{fill:#c1d72e;}.cls-2{fill:#9b9797;}</style></defs><g id="Layer_2" data-name="Layer 2"><g id="Layer_1-2" data-name="Layer 1"><path class="cls-1" d="M35.17.15.48,21.3a1,1,0,0,0-.48.85V82.83a1,1,0,0,0,1.5.87l24.05-14a1,1,0,0,0,.49-.87V60.17a1,1,0,0,0-1.52-.86l-14.83,9a1,1,0,0,1-1.52-.85V27.7a1,1,0,0,1,.49-.86L35.18,11.36a1,1,0,0,1,1,0L62.71,26.84a1,1,0,0,1,.5.86V67.51a1,1,0,0,1-1.52.85l-21.37-13a1,1,0,0,1-.48-.85V49.13a1,1,0,0,1,1.5-.87l14,8.18a1,1,0,0,0,1.51-.87V50.09a1,1,0,0,0-.49-.86l-16-9.7a1,1,0,0,1-.48-.85V32.53a1,1,0,0,1,1.5-.86l14,8.17A1,1,0,0,0,56.85,39V33.49a1,1,0,0,0-.49-.86L36.21,20.44a1,1,0,0,0-1,0L16,32.16a1,1,0,0,0-.48.85v5.41a1,1,0,0,0,1.5.86l13.18-7.7a1,1,0,0,1,1.51.87v6.16a1,1,0,0,1-.48.86L16,48.75a1,1,0,0,0-.48.86V55a1,1,0,0,0,1.5.87l13.18-7.7a1,1,0,0,1,1.51.87V59.87h0v1.35a1,1,0,0,0,.51.87L69.88,83.71a1,1,0,0,0,1.5-.86V22.15a1,1,0,0,0-.48-.85L36.21.15A1,1,0,0,0,35.17.15Z"/><path d="M91.24,42.69V15.82h18.63v5h-13v5.69h12.75v5H96.84v6.08h13v5Z"/><path d="M122,42.69,111.84,15.82h6.4l7.3,20.66,7.26-20.66h6.4L129.05,42.69Z"/><path d="M141.33,42.69V15.82H160v5h-13v5.69h12.75v5H146.93v6.08h13v5Z"/><path d="M179,42.69l-5.18-9.55h-4.1v9.55h-5.61V15.82h12.32c5.49,0,8.84,3.67,8.84,8.66,0,4.75-2.92,7.29-5.76,8l5.92,10.23Zm.55-18.21c0-2.26-1.7-3.63-4-3.63h-5.88v7.26h5.88C177.88,28.11,179.58,26.74,179.58,24.48Z"/><path d="M195.57,42.69v-11L185.42,15.82h6.39l6.56,10.8,6.47-10.8h6.4L201.17,31.69v11Z"/><path d="M91.24,76.38V49.51h18.63v5h-13v5.68h12.75v5H96.84v6.09h13v5Z"/><path d="M122,76.38,111.84,49.51h6.4l7.3,20.67,7.26-20.67h6.4L129.05,76.38Z"/><path d="M141.33,76.38V49.51H160v5h-13v5.68h12.75v5H146.93v6.09h13v5Z"/><path d="M179,76.38l-5.18-9.55h-4.1v9.55h-5.61V49.51h12.32c5.49,0,8.84,3.67,8.84,8.66,0,4.76-2.92,7.29-5.76,8l5.92,10.23Zm.55-18.21c0-2.25-1.7-3.62-4-3.62h-5.88V61.8h5.88C177.88,61.8,179.58,60.43,179.58,58.17Z"/><path d="M195.57,76.38v-11L185.42,49.51h6.39l6.56,10.8,6.47-10.8h6.4L201.17,65.38v11Z"/><path class="cls-1" d="M232,76.46,216.2,54.9V76.46h-3.37v-27h3.45l15.61,21.11V49.43h3.37v27Z"/><path class="cls-1" d="M261.18,76.46l-2.4-6H245.29l-2.39,6H239l10.89-27h4.18l10.93,27ZM252,52.91l-5.77,14.55h11.5Z"/><path class="cls-1" d="M269.92,76.46v-24h-8.58v-3h20.57v3h-8.62v24Z"/><path class="cls-1" d="M285.77,76.46v-27h3.37v27Z"/><path class="cls-1" d="M293.77,63c0-8,5.4-14,13.45-14s13.45,6,13.45,14-5.45,14-13.45,14S293.77,71,293.77,63Zm23.4,0c0-6.32-3.9-11-9.95-11s-10,4.66-10,11,3.86,11,10,11S317.17,69.24,317.17,63Z"/><path class="cls-1" d="M344.52,76.46,328.71,54.9V76.46h-3.37v-27h3.46l15.6,21.11V49.43h3.37v27Z"/><path class="cls-1" d="M221.53,42.69v-24H213v-3h20.56v3h-8.61v24Z"/><path class="cls-1" d="M252.86,42.69,246,32h-5.4V42.69h-3.37v-27h10.89c5,0,8.49,3.16,8.49,8.14a7.48,7.48,0,0,1-7,7.87l7.31,11Zm.2-18.89c0-3-2.19-5.14-5.4-5.14h-7.11V29h7.11A5.06,5.06,0,0,0,253.06,23.8Z"/><path class="cls-1" d="M260.66,42.69v-27H264v27Z"/><path class="cls-1" d="M269.76,42.69v-27h12.07c4.72,0,7.6,2.83,7.6,6.89a6.15,6.15,0,0,1-4.75,6.2A6.75,6.75,0,0,1,290,35.39c0,4.34-2.89,7.3-7.84,7.3ZM285.94,23c0-2.43-1.63-4.37-4.68-4.37h-8.12v8.71h8.12C284.31,27.37,285.94,25.5,285.94,23Zm.52,12c0-2.47-1.7-4.66-5-4.66h-8.29v9.32h8.29C284.6,39.69,286.46,37.91,286.46,35Z"/><path class="cls-1" d="M293.21,42.69v-27H311v3H296.58v8.71h14.1v3h-14.1v9.32H311v3Z"/><path class="cls-2" d="M91.87,86h2.07v16.67H91.87Z"/><path class="cls-2" d="M107.75,94.78c0-2.13-1.07-2.8-2.7-2.8a4.67,4.67,0,0,0-3.57,1.87v8.83H99.6V90.61h1.88v1.75a6,6,0,0,1,4.3-2c2.52,0,3.85,1.27,3.85,3.89v8.48h-1.88Z"/><path class="cls-2" d="M123.25,94.78c0-2.13-1.08-2.8-2.7-2.8A4.67,4.67,0,0,0,117,93.85v8.83H115.1V90.61H117v1.75a6,6,0,0,1,4.3-2c2.53,0,3.85,1.27,3.85,3.89v8.48h-1.87Z"/><path class="cls-2" d="M129.89,96.63c0-3.5,2.3-6.32,6-6.32s6,2.82,6,6.32-2.3,6.35-6,6.35S129.89,100.13,129.89,96.63Zm10,0c0-2.45-1.43-4.65-4-4.65s-4,2.2-4,4.65,1.45,4.67,4,4.67S139.87,99.1,139.87,96.63Z"/><path class="cls-2" d="M144.57,90.61h2l4,9.89,4-9.89h2l-5,12.07h-2Z"/><path class="cls-2" d="M167.91,101.3a5.22,5.22,0,0,1-4,1.68,4,4,0,0,1-4.22-4,4,4,0,0,1,4.22-4,5.06,5.06,0,0,1,4,1.65V94.48c0-1.62-1.3-2.55-3-2.55a4.76,4.76,0,0,0-3.69,1.67l-.88-1.29a6.32,6.32,0,0,1,4.82-2c2.55,0,4.68,1.14,4.68,4.07v8.3h-1.88Zm0-3.45a4,4,0,0,0-3.32-1.5,2.66,2.66,0,1,0,0,5.28,4,4,0,0,0,3.32-1.5Z"/><path class="cls-2" d="M175.66,100.15v-7.9h-2V90.61h2v-3.3h1.87v3.3H180v1.64h-2.45v7.5c0,.9.4,1.55,1.23,1.55a1.78,1.78,0,0,0,1.27-.5l.55,1.4a3.06,3.06,0,0,1-2.25.78C176.56,103,175.66,102,175.66,100.15Z"/><path class="cls-2" d="M184.22,87.31a1.26,1.26,0,0,1,2.52,0,1.26,1.26,0,1,1-2.52,0Zm.33,3.3h1.87v12.07h-1.87Z"/><path class="cls-2" d="M191.13,96.63c0-3.5,2.3-6.32,6-6.32s6,2.82,6,6.32-2.3,6.35-6,6.35S191.13,100.13,191.13,96.63Zm10,0c0-2.45-1.43-4.65-4-4.65s-4,2.2-4,4.65,1.45,4.67,4,4.67S201.11,99.1,201.11,96.63Z"/><path class="cls-2" d="M216,94.78c0-2.13-1.07-2.8-2.7-2.8a4.67,4.67,0,0,0-3.57,1.87v8.83h-1.88V90.61h1.88v1.75a6,6,0,0,1,4.3-2c2.52,0,3.85,1.27,3.85,3.89v8.48H216Z"/><path class="cls-2" d="M231.94,86H234v14.82h7.75v1.85h-9.83Z"/><path class="cls-2" d="M253.94,101.3a5.22,5.22,0,0,1-4,1.68,4,4,0,0,1-4.22-4,4,4,0,0,1,4.22-4,5.06,5.06,0,0,1,4,1.65V94.48c0-1.62-1.3-2.55-3.05-2.55a4.8,4.8,0,0,0-3.7,1.67l-.87-1.29a6.32,6.32,0,0,1,4.82-2c2.55,0,4.68,1.14,4.68,4.07v8.3h-1.88Zm0-3.45a4,4,0,0,0-3.32-1.5,2.66,2.66,0,1,0,0,5.28,4,4,0,0,0,3.32-1.5Z"/><path class="cls-2" d="M261.29,86h1.87v6.42a5,5,0,0,1,4.08-2.12c3.15,0,5.37,2.49,5.37,6.34s-2.22,6.33-5.37,6.33a5.11,5.11,0,0,1-4.08-2.1v1.8h-1.87Zm5.47,15.29c2.45,0,3.9-2,3.9-4.65S269.21,92,266.76,92a4.49,4.49,0,0,0-3.6,2V99.4A4.45,4.45,0,0,0,266.76,101.3Z"/></g></g></svg>