<svg id="Capa_1" data-name="Capa 1" xmlns="http://www.w3.org/2000/svg" xmlns:xlink="http://www.w3.org/1999/xlink" viewBox="0 0 2383.29 459"><defs><style>.cls-1{fill:#1c6fe5;}.cls-2{fill:#c8d5f4;}.cls-3{fill:url(#Degradado_sin_nombre_194);}.cls-4{fill:url(#Degradado_sin_nombre_164);}.cls-5{fill:url(#Degradado_sin_nombre_164-2);}.cls-6{fill:url(#Degradado_sin_nombre_165);}.cls-7{fill:url(#Degradado_sin_nombre_165-2);}</style><linearGradient id="Degradado_sin_nombre_194" x1="264.76" y1="459" x2="264.76" gradientUnits="userSpaceOnUse"><stop offset="0" stop-color="#3135d1"/><stop offset="1" stop-color="#1c6fe5"/></linearGradient><linearGradient id="Degradado_sin_nombre_164" x1="208.27" y1="267" x2="208.27" y2="337.2" gradientUnits="userSpaceOnUse"><stop offset="0.5" stop-color="#153bb0" stop-opacity="0"/><stop offset="1" stop-opacity="0.4"/></linearGradient><linearGradient id="Degradado_sin_nombre_164-2" x1="321.26" y1="267" x2="321.26" y2="337.2" xlink:href="#Degradado_sin_nombre_164"/><linearGradient id="Degradado_sin_nombre_165" x1="208.27" y1="459" x2="208.27" y2="377.21" gradientUnits="userSpaceOnUse"><stop offset="0.5" stop-color="#153bb0" stop-opacity="0"/><stop offset="1" stop-opacity="0.3"/></linearGradient><linearGradient id="Degradado_sin_nombre_165-2" x1="321.26" y1="459" x2="321.26" y2="377.21" xlink:href="#Degradado_sin_nombre_165"/></defs><title>ID-logo-sin_fondo-claro</title><path class="cls-1" d="M1719.66,141.92c-11.6-130.63-116.31,37.54-141.94,75.49,36.54-101.82,53.45-101.61,36.41-125.13-18.14-13.44-53.73,82.22-61.45,99.55-7.54,18.9-6,15.11-10.16,26.21-6,23.18-86,207.39-8.28,157.5,6.91-30.57,15-58.07,26.3-80.41C1638.47,283.24,1708.83,213.15,1719.66,141.92Zm-55.31,43.21c-25,41.69-59.8,75.13-92.44,86.22C1590.46,218.25,1727.49,41.56,1664.35,185.13Z"/><path class="cls-1" d="M2241,316.81c22.05-24.47,39.24-57.75,7.55-38.48-72.35,102.6-95.67,93.13-67.59,22,91.25-40.31,58.72-100.65,16.17-86-23.39,6.42-40,44.08-57.54,67.26-38.19,54.47-80.67,107.35-83.87,99.12-9.22-14.57,57.89-182.88,61.29-186.81,75.18-1.68,75.51-24.81,10.23-18.79,8.15-32.25,79.48-108,5.23-83.17-22,13.21-35.21,65.11-48.49,84.23-124.58-1.81-99.46,25.48-8,16.53-6.68,21.21-25.37,84.92-58.53,109.26-11.92,10.6-22.26,19.93-26.13,9.57-3.49-24.15,14.34-38,26.69-55.73,18-17.91,8.86-44.59-9.38-43.54-21.09,3.19-47.22,52.47-64.73,74,6-44.54,29.32-57.66,26-71.72-13.42-15.81-25.12-7.23-31.36,4.23-12.17,17-16.55,52.1-25.61,71.09-17,25.86-57.44,71.13-67.58,63.92-4.11-1.89-4.75-16.28,1.08-38.82.05-7.83,9-15.17,19.82-22.27,15.88-10.41,31.81-24.61,37-33.67,17.76-31.22-4.69-58.68-40.08-42.47-30.81,16.91-47.13,76-78.21,98.08-12.54,7.88,21.51-59,12.47-66.76-21.06-35-76.34,73.71-90.4,73.59-6.92-13.22,27.16-63.07,31.59-86.34,1.94-8.67-1.65-13.83-13.51-13.5-25.91.09-44.44,54.7-49.49,68-18.93,69.55,21.68,82.53,72.69,11.22-13.52,57.85,36.5,43.23,61.25,14.83-6.51,38,13,69.68,52.59,56.37,24.51-12.9,38.54-38.24,55.3-59.85,18.84,33.05,47.22-29.58,60.73-47.07-30.4,69.83,14.27,109.31,55,51.48-38.67,180.51,63.76,69,104.6-1-7.88,36.75,15.23,68.34,48.65,58.45C2210,365,2223.79,336.49,2241,316.81Zm-24.3-84.2c1.51,10.17-8.19,34.31-31.71,47.36C2190.9,262.15,2213.94,217.37,2216.72,232.61Zm-360,47.61c5.38-14.68,19.86-46.16,29.4-50.63C1897.64,242.38,1870.61,273.4,1856.7,280.22Z"/><path class="cls-1" d="M2383.17,274.66c-3.05-21.38-57.72,27.76-70,30.61-23.48-95.44-3-42.5-5.41-84.45-2.15-5.78-6.19-6.62-14.11-6.2-49.24,5.89-13.57,78.55-14.58,108.52-157.43,89.76,67.1,152.21,38.27,5.56C2333.5,315.62,2386.06,292.91,2383.17,274.66Zm-111,104.64c-5.19,6.28-14.3,13.16-28.38,10.67-8.56-16.21,25.08-34.24,37.8-44.22C2283.65,354.55,2280.67,369.06,2272.2,379.3Z"/><path class="cls-2" d="M592.12,337.38V212h38.21V337.38Z"/><path class="cls-2" d="M649.43,275.42c-.68-63.29,69.17-84.69,95.52-41.2V163.05h38.21V275c.87,13-3.83,31.22,8.36,30.61v31.76c-18.29,3.88-40.34,3.4-40.36-20.77C715.2,367.34,646.28,328.74,649.43,275.42Zm95.76,15.12v-25.6c-16.48-36.67-59.38-22.28-56.16,15.59C692.31,311.17,731.7,317.15,745.19,290.54Z"/><path class="cls-2" d="M812.77,337.38V212H851V337.38Z"/><path class="cls-2" d="M937,339.77c-90.48-.22-87.86-128.06-1.45-128.23C1028,210.42,1025.28,340.8,937,339.77ZM909,275.65c.75,42.45,53.38,41.54,55.55,2.88C966.78,231.9,909.12,233,909,275.65Z"/><path class="cls-2" d="M1221.13,337.38h-38.21V268.19q0-12-4.42-17.59c-6.36-7.87-17.84-7-26.87.47a32.89,32.89,0,0,0-10.5,15.94v70.37h-38.21V268.19q0-12.19-4.54-17.71c-6.52-7.8-17.45-6.76-26.51.38a33.17,33.17,0,0,0-10.75,15.59v70.93h-38.2V213.44h34.38v21.19c15.27-27.7,72.07-34.52,81,.7,28.52-39.67,86.58-29.87,82.87,22.87Z"/><path class="cls-2" d="M1238.32,300.36c.27-33.22,39.33-45.86,69-40a57.52,57.52,0,0,1,12.89,3.7v-5.48c.82-22.67-27.23-23.6-44.66-17A105.79,105.79,0,0,0,1256,251.89l-11.46-24.36a96.91,96.91,0,0,1,25.91-12.06c21.35-6.85,56.81-5.18,72.36,9.2q15.63,13.14,15.64,38.48v31.91q0,5.64,1.79,8t6.09,2.58v31.76a57.34,57.34,0,0,1-8.84,1.56c-12.51,1.63-27.67-1-30.56-15.65l-1-5.49a53.89,53.89,0,0,1-19.7,16.36C1280,348.4,1238,334.94,1238.32,300.36Zm75.94,4.52a18.74,18.74,0,0,0,4.3-4.75,9.24,9.24,0,0,0,1.67-4.75V284.49a56.87,56.87,0,0,0-10.75-2.9C1254.55,272.43,1270.94,332.52,1314.26,304.88Z"/><path class="cls-2" d="M1434.14,339.77c-19.21.09-42.45-6.74-57.07-21l13.37-23.88a93.17,93.17,0,0,0,22.09,12.53c10.23,3.87,22.42,6.12,31.76,2,13.21-11-6.9-17-17.55-19.56C1390.17,279,1372.8,264,1390.2,231.18c21-32.6,74.33-20.58,94.33-1.74l-15,23.64a94,94,0,0,0-19-10.74c-7.74-3-15.82-4.41-23.76-2.41-6.84,1.29-10,9.95-4.75,15,4.74,3.74,10,4.27,16.69,6.52,16.61,5.58,31.9,8.58,41.67,20.4,9.79,13.45,5.13,37.76-8.71,47.22Q1457.78,339.78,1434.14,339.77Z"/><circle class="cls-2" cx="611.22" cy="182.16" r="19.1"/><circle class="cls-2" cx="831.88" cy="182.16" r="19.1"/><path class="cls-3" d="M499.53,332A204.61,204.61,0,0,1,341.27,133.12V0h-153V133.12a202.73,202.73,0,0,1-59.88,144.2A203.94,203.94,0,0,1,30,332,236.6,236.6,0,0,1,.22,336.62c7.88,14.77,15.59,41.59,37.13,40.59H188.26V459h40V377.21h73V459h40V377.21h150.9c21.55,1,29.25-25.82,37.13-40.59A236.14,236.14,0,0,1,499.53,332ZM188.26,267v70.2H118.05A246.58,246.58,0,0,0,188.26,267Zm113,70.2h-73V189.68C229.53,165,247.12,153,264.76,153s35.23,12,36.49,36.68ZM264.76,113a36.5,36.5,0,1,1,36.49-36.5A36.5,36.5,0,0,1,264.76,113Zm76.51,224.2V267a246.32,246.32,0,0,0,70.21,70.2Z"/><rect class="cls-4" x="188.26" y="267" width="40.02" height="70.21"/><rect class="cls-5" x="301.25" y="267" width="40.02" height="70.21"/><rect class="cls-6" x="188.26" y="377.21" width="40.02" height="81.79"/><rect class="cls-7" x="301.25" y="377.21" width="40.02" height="81.79"/></svg>