<svg width="218" height="97" viewBox="0 0 218 97" fill="none" xmlns="http://www.w3.org/2000/svg">
<path d="M152.686 18.1366H135.675V0.976562H126.946V43.3305H135.675V25.1777H152.686V43.3305H161.415V0.976562H152.686V18.1366Z" fill="black"/>
<path d="M178.319 0.976562H169.59V43.3305H178.319V0.976562Z" fill="black"/>
<path d="M202.867 18.3431C200.712 17.7652 198.65 16.882 196.744 15.7203C196.127 15.3743 195.61 14.8736 195.244 14.2672C194.878 13.6608 194.677 12.9696 194.659 12.2618C194.644 11.5676 194.798 10.8802 195.108 10.2589C195.418 9.63765 195.875 9.10114 196.438 8.69574C197.901 7.71479 199.645 7.24099 201.403 7.34709C203.264 7.2418 205.098 7.83152 206.549 9.00187C207.171 9.57303 207.659 10.2754 207.977 11.0581C208.294 11.8408 208.434 12.6843 208.386 13.5277H217.106C217.144 11.1135 216.461 8.74293 215.146 6.71828C213.786 4.67969 211.875 3.06983 209.635 2.07663C207.094 0.942284 204.335 0.377498 201.552 0.421858C198.768 0.380943 196.003 0.892766 193.418 1.9277C191.209 2.78204 189.283 4.23806 187.858 6.13083C186.579 7.91377 185.903 10.0592 185.931 12.2535C185.931 16.6635 188.33 20.155 193.145 22.7613C195.451 23.9298 197.854 24.896 200.327 25.6489C202.55 26.2583 204.667 27.2012 206.607 28.4455C207.186 28.8882 207.647 29.4657 207.951 30.1276C208.256 30.7895 208.393 31.5158 208.353 32.2432C208.379 32.9308 208.232 33.614 207.928 34.2309C207.623 34.8478 207.169 35.3789 206.607 35.7761C205.162 36.7001 203.462 37.1432 201.75 37.042C196.168 37.042 193.377 34.7033 193.377 30.0258H184.632C184.577 32.5892 185.31 35.1076 186.733 37.2406C188.267 39.4237 190.391 41.1254 192.856 42.147C195.664 43.365 198.698 43.9741 201.758 43.9342C206.453 43.9342 210.187 42.8917 212.961 40.8066C214.304 39.818 215.383 38.5148 216.104 37.0116C216.826 35.5084 217.167 33.8512 217.098 32.1853C217.138 30.6455 216.856 29.1143 216.271 27.6896C215.685 26.2649 214.809 24.9781 213.698 23.9114C211.442 21.6885 207.832 19.8324 202.867 18.3431Z" fill="black"/>
<path d="M42.4615 62.8646C43.9012 60.7796 46.0855 59.7371 48.9896 59.7371C51.6704 59.7371 53.6561 60.3576 54.9716 61.5822C56.2872 62.8067 57.0401 64.8007 57.2552 67.5311H66.0172C65.5539 62.804 63.8274 59.1303 60.8378 56.5103C57.8482 53.8902 53.9126 52.5802 49.031 52.5802C45.7611 52.5096 42.5385 53.3705 39.7394 55.0624C37.0233 56.7777 34.8802 59.2636 33.5836 62.2027C32.0935 65.5892 31.3594 69.2597 31.4324 72.9588V75.5485C31.4324 81.9249 32.9879 86.9416 36.0989 90.5987C39.2099 94.2557 43.482 96.0843 48.9151 96.0843C53.8795 96.0843 57.8785 94.7742 60.9123 92.1542C63.946 89.5341 65.6284 85.9488 65.9593 81.3981H57.1973C56.9987 83.9796 56.2375 85.8853 54.9137 87.1153C53.5899 88.3454 51.5766 88.9604 48.8738 88.9604C45.8869 88.9604 43.7026 87.9097 42.3126 85.7915C40.9226 83.6734 40.2358 80.3308 40.2358 75.7553V72.5616C40.28 68.182 41.0219 64.9496 42.4615 62.8646Z" fill="black"/>
<path d="M97.8137 55.129C94.9593 53.4604 91.7126 52.5811 88.4063 52.5811C85.1 52.5811 81.8533 53.4604 78.9989 55.129C76.2039 56.8834 73.9902 59.4253 72.6363 62.4348C71.0708 65.891 70.299 69.6539 70.3775 73.4473V75.5406C70.309 79.2638 71.0811 82.9545 72.6363 86.338C74.0146 89.3224 76.2384 91.8368 79.032 93.5694C81.8907 95.2385 85.1415 96.118 88.4518 96.118C91.7621 96.118 95.0129 95.2385 97.8716 93.5694C100.65 91.8217 102.849 89.2913 104.193 86.2966C105.733 82.851 106.49 79.107 106.41 75.3338V73.4473C106.501 69.6562 105.741 65.8931 104.185 62.4348C102.826 59.4258 100.61 56.8844 97.8137 55.129ZM97.5986 75.4496C97.5986 79.8623 96.8015 83.2105 95.2074 85.4941C94.4788 86.6042 93.4742 87.506 92.292 88.1108C91.1099 88.7157 89.7908 89.0029 88.4642 88.9443C87.1058 89.0025 85.756 88.7021 84.5505 88.0732C83.345 87.4443 82.3263 86.5091 81.5969 85.3617C80.0359 82.9788 79.2554 79.6251 79.2554 75.3007V73.2322C79.2554 68.8195 80.0607 65.4796 81.6714 63.2125C82.4567 62.1484 83.4817 61.2844 84.6634 60.6905C85.8451 60.0966 87.1502 59.7896 88.4727 59.7945C89.7952 59.7993 91.0979 60.1158 92.2753 60.7183C93.4526 61.3208 94.4713 62.1923 95.2488 63.2622C96.8429 65.5733 97.6399 68.9463 97.6399 73.3811L97.5986 75.4496Z" fill="black"/>
<path d="M135.807 55.6833C132.753 53.9887 129.305 53.1324 125.813 53.2011H112.781V95.5303H125.895C129.388 95.5706 132.83 94.6887 135.874 92.9736C138.799 91.3123 141.179 88.8375 142.724 85.8498C144.388 82.6039 145.224 78.9971 145.157 75.3503V73.3976C145.219 69.7323 144.366 66.1094 142.675 62.8567C141.124 59.854 138.74 57.363 135.807 55.6833ZM136.345 75.5902C136.307 79.7437 135.385 82.9347 133.582 85.1631C131.778 87.3915 129.169 88.4947 125.755 88.4726H121.543V60.2339H125.846C129.282 60.2339 131.891 61.3371 133.673 63.5434C135.454 65.7498 136.345 69.0208 136.345 73.3563V75.5902Z" fill="black"/>
<path d="M160.224 77.1622H176.978V70.328H160.224V60.2339H179.825V53.168H151.495V95.5219H179.883V88.5057H160.224V77.1622Z" fill="black"/>
<path d="M208.832 77.7994C211.136 76.8504 213.112 75.2485 214.517 73.1909C215.834 71.018 216.487 68.5071 216.395 65.9678C216.395 61.8887 215.038 58.7447 212.316 56.5107C209.594 54.2768 205.746 53.2012 200.732 53.2012H185.012V95.5303H193.741V80.0168H200.691L208.634 95.5138H218V95.1084L208.832 77.7994ZM205.846 71.2713C204.425 72.457 202.603 73.0497 200.757 72.9261H193.716V60.234H200.724C203.074 60.234 204.814 60.8049 205.945 61.9467C206.53 62.5785 206.983 63.3215 207.276 64.1317C207.569 64.9418 207.696 65.8026 207.649 66.6628C207.695 67.5151 207.557 68.3674 207.246 69.1623C206.935 69.9572 206.458 70.6763 205.846 71.2713Z" fill="black"/>
<path d="M116.951 32.6487V45.8869L75.582 28.5118V17.3752L116.951 0V13.2382L89.358 22.8856L116.951 32.6487Z" fill="#009345"/>
<path d="M31.2339 0.0415039V13.2466L58.8273 22.8857L0 43.4876V59.1501L72.6033 28.5367V17.3753L31.2339 0.0415039Z" fill="#009345"/>
</svg>
