<?xml version="1.0" encoding="UTF-8"?>
<!DOCTYPE svg PUBLIC "-//W3C//DTD SVG 1.1//EN" "http://www.w3.org/Graphics/SVG/1.1/DTD/svg11.dtd">
<!-- Creator: CorelDRAW X8 -->
<svg xmlns="http://www.w3.org/2000/svg" xml:space="preserve" width="2200px" height="629px" version="1.1" style="shape-rendering:geometricPrecision; text-rendering:geometricPrecision; image-rendering:optimizeQuality; fill-rule:evenodd; clip-rule:evenodd"
viewBox="0 0 2175 622"
 xmlns:xlink="http://www.w3.org/1999/xlink">
 <defs>
  <style type="text/css">
   <![CDATA[
    .fil0 {fill:#FFB703}
    .fil1 {fill:#023047;fill-rule:nonzero}
   ]]>
  </style>
 </defs>
 <g id="Слой_x0020_1">
  <metadata id="CorelCorpID_0Corel-Layer"/>
  <path class="fil0" d="M311 0c172,0 311,139 311,311 0,172 -139,311 -311,311 -172,0 -311,-139 -311,-311 0,-172 139,-311 311,-311z"/>
  <path class="fil1" d="M844 479c0,-7 -1,-12 -3,-15 -1,-2 -4,-4 -9,-4 -1,0 -2,0 -4,0 -1,0 -3,1 -4,1l0 58 -21 0 0 -73c2,0 4,-1 6,-1 3,-1 5,-1 8,-2 3,0 5,0 8,-1 3,0 6,0 9,0 5,0 9,1 13,2 3,1 6,3 8,5 3,-2 7,-4 11,-5 4,-1 7,-2 10,-2 6,0 11,1 15,2 4,2 7,5 9,8 3,3 4,6 5,10 1,5 1,9 1,14l0 43 -21 0 0 -40c0,-7 -1,-12 -2,-15 -2,-2 -5,-4 -10,-4 -1,0 -2,0 -4,1 -2,1 -4,1 -5,2 0,2 1,5 1,7 0,2 0,5 0,8l0 41 -21 0 0 -40zm-459 -302l124 0 0 49 -124 0 0 151c0,17 1,30 4,41 2,11 6,19 11,25 5,6 11,11 19,13 8,3 16,4 26,4 18,0 32,-2 43,-6 11,-4 18,-7 22,-8l12 48c-6,3 -16,7 -31,11 -15,5 -32,7 -51,7 -22,0 -40,-3 -55,-9 -14,-5 -26,-14 -35,-25 -9,-12 -15,-26 -18,-42 -4,-17 -6,-36 -6,-58l0 -293 59 -10 0 102zm-145 0l-124 0 0 49 124 0 0 151c0,17 -1,30 -3,41 -3,11 -7,19 -12,25 -5,6 -11,11 -19,13 -7,3 -16,4 -26,4 -18,0 -32,-2 -43,-6 -11,-4 -18,-7 -22,-8l-12 48c6,3 17,7 31,11 15,5 32,7 51,7 22,0 41,-3 55,-9 15,-5 26,-14 35,-25 9,-12 15,-26 19,-42 3,-17 5,-36 5,-58l0 -293 -59 -10 0 102zm851 304c0,6 -1,11 -3,16 -1,5 -4,9 -7,13 -3,3 -7,6 -12,8 -4,2 -9,3 -15,3 -5,0 -10,-1 -15,-3 -4,-2 -8,-5 -11,-8 -4,-4 -6,-8 -8,-13 -2,-5 -3,-10 -3,-16 0,-6 1,-11 3,-16 2,-5 5,-9 8,-12 3,-4 7,-7 11,-8 5,-2 10,-3 15,-3 6,0 11,1 15,3 5,1 8,4 12,8 3,3 5,7 7,12 2,5 3,10 3,16zm-22 0c0,-7 -1,-12 -4,-15 -2,-4 -6,-6 -11,-6 -5,0 -8,2 -11,6 -3,3 -4,8 -4,15 0,7 1,12 4,16 3,3 6,5 11,5 5,0 9,-2 11,-5 3,-4 4,-9 4,-16zm152 38c-5,-10 -10,-21 -15,-34 -5,-12 -9,-26 -14,-41l23 0c0,3 2,7 3,12 1,4 3,8 4,13 1,4 3,9 4,13 1,4 3,8 4,11 1,-3 3,-7 4,-11 2,-4 3,-9 4,-13 2,-5 3,-9 4,-13 2,-5 3,-9 4,-12l22 0c-5,15 -10,29 -15,41 -5,13 -9,24 -14,34l-18 0zm148 -37c0,-7 1,-13 3,-18 2,-5 4,-9 8,-12 3,-3 7,-6 11,-8 5,-1 9,-2 13,-2 11,0 20,3 26,9 6,7 9,17 9,29 0,1 0,3 0,4 0,2 0,3 -1,4l-48 0c1,4 3,8 7,10 3,3 8,4 14,4 4,0 8,0 11,-1 4,0 7,-1 10,-2l3 17c-2,0 -3,1 -5,2 -2,0 -4,1 -6,1 -3,0 -5,1 -8,1 -2,0 -5,1 -8,1 -7,0 -12,-1 -17,-3 -5,-2 -9,-5 -13,-9 -3,-3 -5,-7 -7,-12 -2,-5 -2,-10 -2,-15zm49 -8c0,-2 0,-4 0,-6 -1,-1 -2,-3 -3,-4 -1,-2 -2,-3 -4,-3 -2,-1 -4,-2 -6,-2 -3,0 -5,1 -6,1 -2,1 -3,2 -5,4 -1,1 -2,3 -2,4 -1,2 -1,4 -2,6l28 0zm174 5c0,-7 -1,-12 -3,-15 -2,-2 -5,-4 -9,-4 -1,0 -3,0 -4,0 -1,0 -3,1 -4,1l0 58 -21 0 0 -73c1,0 4,-1 6,-1 2,-1 5,-1 8,-2 2,0 5,0 8,-1 3,0 6,0 8,0 6,0 10,1 14,2 3,1 6,3 8,5 3,-2 6,-4 10,-5 4,-1 8,-2 11,-2 6,0 11,1 15,2 4,2 7,5 9,8 2,3 4,6 5,10 1,5 1,9 1,14l0 43 -21 0 0 -40c0,-7 -1,-12 -3,-15 -2,-2 -5,-4 -9,-4 -1,0 -3,0 -5,1 -2,1 -3,1 -5,2 1,2 1,5 2,7 0,2 0,5 0,8l0 41 -21 0 0 -40zm173 3c0,-7 1,-13 3,-18 2,-5 5,-9 8,-12 3,-3 7,-6 12,-8 4,-1 8,-2 13,-2 11,0 19,3 25,9 6,7 9,17 9,29 0,1 0,3 0,4 0,2 0,3 0,4l-48 0c0,4 2,8 6,10 4,3 8,4 14,4 4,0 8,0 12,-1 4,0 7,-1 9,-2l3 17c-1,0 -3,1 -5,2 -2,0 -4,1 -6,1 -2,0 -5,1 -7,1 -3,0 -6,1 -8,1 -7,0 -13,-1 -18,-3 -5,-2 -9,-5 -12,-9 -4,-3 -6,-7 -8,-12 -1,-5 -2,-10 -2,-15zm50 -8c0,-2 -1,-4 -1,-6 -1,-1 -1,-3 -3,-4 -1,-2 -2,-3 -4,-3 -1,-1 -3,-2 -6,-2 -2,0 -4,1 -6,1 -2,1 -3,2 -4,4 -1,1 -2,3 -3,4 0,2 -1,4 -1,6l28 0zm132 -28c4,-1 8,-2 14,-3 6,-1 12,-1 18,-1 6,0 12,1 16,2 4,2 7,5 10,8 2,3 4,6 5,10 1,5 2,9 2,14l0 43 -22 0 0 -40c0,-7 0,-12 -2,-15 -2,-2 -5,-4 -10,-4 -2,0 -4,0 -5,0 -2,0 -3,1 -5,1l0 58 -21 0 0 -73zm178 -21l22 -3 0 22 25 0 0 17 -25 0 0 27c0,4 0,8 2,10 2,3 5,4 9,4 3,0 5,0 7,0 3,-1 5,-1 7,-2l3 16c-2,1 -5,2 -8,3 -4,1 -7,1 -12,1 -6,0 -11,-1 -14,-2 -4,-2 -7,-4 -9,-7 -3,-2 -4,-6 -5,-10 -1,-4 -2,-8 -2,-13l0 -63zm-1206 -324l0 31 -80 0 0 222 -35 0 0 -222 -79 0 0 -31 194 0zm4 158c0,-16 3,-31 8,-43 4,-13 11,-23 19,-32 8,-8 17,-14 28,-18 10,-4 21,-6 32,-6 25,0 45,8 58,23 14,16 21,41 21,73 0,2 0,3 0,6 0,2 -1,4 -1,6l-129 0c1,20 7,35 17,45 10,10 25,15 46,15 12,0 22,-1 30,-3 9,-2 15,-4 19,-6l5 29c-5,2 -12,4 -22,7 -10,2 -22,3 -35,3 -17,0 -31,-2 -43,-7 -12,-5 -22,-12 -30,-21 -8,-9 -13,-19 -17,-31 -4,-12 -6,-25 -6,-40zm130 -18c1,-15 -3,-28 -11,-38 -8,-10 -19,-15 -33,-15 -8,0 -14,2 -20,5 -6,3 -11,7 -15,12 -5,5 -8,10 -10,17 -2,6 -4,12 -5,19l94 0zm198 113c-3,-6 -6,-12 -10,-18 -4,-7 -8,-13 -13,-20 -4,-7 -9,-14 -14,-21 -5,-7 -10,-13 -14,-19 -5,6 -10,12 -14,19 -5,7 -10,14 -15,21 -4,7 -8,14 -12,20 -4,7 -7,13 -10,18l-35 0c9,-17 19,-34 31,-51 11,-17 23,-33 35,-49l-63 -90 38 0 45 67 46 -67 36 0 -61 88c12,16 23,33 36,50 12,18 22,35 31,52l-37 0zm104 -190l72 0 0 29 -72 0 0 87c0,10 1,17 2,24 2,6 4,11 7,14 3,4 7,6 11,8 4,1 9,2 15,2 10,0 19,-1 25,-4 6,-2 10,-3 13,-4l6 28c-3,1 -9,3 -18,6 -8,3 -18,4 -29,4 -13,0 -23,-2 -32,-5 -8,-3 -15,-8 -20,-15 -5,-6 -8,-15 -11,-24 -2,-10 -3,-21 -3,-33l0 -169 34 -6 0 58zm286 -63l0 31 -80 0 0 222 -35 0 0 -222 -79 0 0 -31 194 0zm105 59c3,0 6,1 10,1 4,0 7,1 11,1 4,1 7,2 10,2 3,1 5,1 7,2l-6 29c-3,-1 -7,-2 -13,-3 -7,-1 -15,-2 -24,-2 -7,0 -13,1 -19,2 -6,1 -10,2 -12,3l0 159 -34 0 0 -182c8,-3 18,-5 30,-8 12,-2 25,-4 40,-4zm60 99c0,-16 2,-31 7,-43 5,-13 11,-23 19,-32 8,-8 18,-14 28,-18 11,-4 21,-6 32,-6 26,0 45,8 59,23 13,16 20,41 20,73 0,2 0,3 0,6 0,2 0,4 0,6l-130 0c2,20 7,35 17,45 10,10 26,15 47,15 12,0 22,-1 30,-3 8,-2 14,-4 18,-6l5 29c-4,2 -11,4 -22,7 -10,2 -22,3 -35,3 -16,0 -30,-2 -43,-7 -12,-5 -21,-12 -29,-21 -8,-9 -14,-19 -17,-31 -4,-12 -6,-25 -6,-40zm130 -18c0,-15 -4,-28 -12,-38 -7,-10 -18,-15 -32,-15 -8,0 -15,2 -21,5 -6,3 -11,7 -15,12 -4,5 -7,10 -10,17 -2,6 -3,12 -4,19l94 0zm73 18c0,-16 3,-31 8,-43 5,-13 11,-23 19,-32 8,-8 17,-14 28,-18 10,-4 21,-6 32,-6 25,0 45,8 58,23 14,16 21,41 21,73 0,2 0,3 0,6 0,2 0,4 -1,6l-129 0c1,20 7,35 17,45 10,10 25,15 47,15 11,0 21,-1 30,-3 8,-2 14,-4 18,-6l5 29c-4,2 -12,4 -22,7 -10,2 -22,3 -35,3 -17,0 -31,-2 -43,-7 -12,-5 -22,-12 -30,-21 -7,-9 -13,-19 -17,-31 -4,-12 -6,-25 -6,-40zm131 -18c0,-15 -4,-28 -12,-38 -8,-10 -19,-15 -33,-15 -7,0 -14,2 -20,5 -6,3 -11,7 -15,12 -4,5 -8,10 -10,17 -2,6 -4,12 -4,19l94 0z"/>
 </g>
</svg>
